<svg id="Contours" xmlns="http://www.w3.org/2000/svg" viewBox="0 0 3178.95 1082.99"><defs><style>.cls-1{font-size:1000px;font-family:PoiretOne-Regular, Poiret One;}.cls-1,.cls-2{fill:#fff;}</style></defs><title>Logo-Scherenschnitt-weiß-incircle</title><text class="cls-1" transform="translate(0 875)">auctore</text><path class="cls-2" d="M3427.93,1932q-.25,35.08-.42,70.16c0,2.41.42,4.83.38,7.24,0,7.08-.21,14.15-.38,21.23-.13,6.14-.3,12.33-.42,18.47-.13,6.86-.25,13.73-.42,20.59,0,1.86-.3,3.69-.42,5.55,0,6.06,0,11.74,0,17.37-.08,4.11-.38,8.22-.38,12.33,0,3.69.38,7.37.34,11.06q-.06,13.66-.42,27.37c-.13,5.38-.76,10.76-.72,16.14a110.06,110.06,0,0,1-1.78,19.07c-.59,3.86-1.1,7.75-1.74,11.61a6.15,6.15,0,0,1-1,2.92,64.12,64.12,0,0,1-6.78,7.54,7.36,7.36,0,0,1-4.87,1.4c-4.7-.21-7.33,2.29-9.36,6.06-.64,1.14-1.69,2.12-2.25,3.3-.93,2.08-2.16,1.82-3.86,1-2.8-1.4-5.89-2.33-8.47-4a13.74,13.74,0,0,0-7.67-1.95c-6.52,0-12.41-2.2-18.13-4.83-1.61-.76-2.84-2.63-3.9-4.19-2-3.22-3.77-6.61-5.72-9.91a3.8,3.8,0,0,1-.51-3.52c.55-2,.38-4.24.51-6.36.3-5,.76-10.08.8-15.13q.32-29.23.42-58.51c0-3.26-.21-6.52-.42-9.79a3.43,3.43,0,0,0-.64-1.4c-.25.3-.59.55-.85.89-1.65,2.2-3.26,4.45-5,6.61a2.5,2.5,0,0,1-1,.47,5.83,5.83,0,0,1-.51-1.44c-.17-2.67-.47-5.34-.38-8a73,73,0,0,1,1-9.11c.64-4,1.61-8,2.25-11.95a2,2,0,0,0-1.19-1.57c-3.18-.55-6.4-.93-9.62-1.36-1.19-.17-1.14.64-.93,1.27,1.1,3.77,2.25,7.54,3.39,11.27.13.42.21.89.3,1.31a4.18,4.18,0,0,1-1.23.13c-4.45-1.14-8.9-2.33-13.39-3.47a.63.63,0,0,0-.55.17q-6.16,9.09-12.29,18.18c-.64.93-1.1,1.95-1.69,2.88a6.38,6.38,0,0,1-1,.89,4.26,4.26,0,0,1-.72-1.14c-.85-4.53-1.91-9-2.46-13.6-.25-2.12.47-4.41.76-6.61.38-2.67.76-5.34,1.31-7.92a6.53,6.53,0,0,1,1.4-3.22c2.29-2.5,4.7-4.87,7.16-7.2,1-.93.47-1.06-.42-1.53-3.56-1.86-7.08-3.81-10.51-5.85a25.13,25.13,0,0,1-4.41-3.14c-2.29-2.12-4.28-4.53-6.65-6.52a24.06,24.06,0,0,1-7.88-12.67c-2.33-8.56-4.66-17.07-6.4-25.76a104.13,104.13,0,0,1-1.61-18.81c-.13-8.56-.47-17.12-.85-25.72-.13-3.77-.51-7.5-.8-11.27-.55-6.91-1.19-13.81-1.69-20.72-.34-4.83-.64-9.62-.85-14.45-.21-5.8-.25-11.61-.42-17.41,0-1.44-.25-2.88-.42-4.28-.13-.89-.47-1.65-1.65-1.48l-13.18,1.91c-2.2.34-4.36.72-6.57,1.06-1.44.21-2-.34-1.91-1.86.3-7.16.34-14.32,1-21.44.21-2.5,1.74-4.87,2.75-7.29,2-4.91,3.9-9.83,6.23-14.57.64-1.36,2.46-2.25,3.86-3.18,3.77-2.46,7.67-4.75,11.4-7.24a3.72,3.72,0,0,0,1.4-2.71c0-5-.3-9.91-.3-14.87a7.94,7.94,0,0,1,1.23-3.69c3.05-4.91,6-9.87,9.41-14.49,1.74-2.33,4.32-4.07,6.69-5.85,3.39-2.58,7-4.91,10.42-7.46s7.5-3.43,11.44-4.66,8-2.58,12-3.77c1.61-.47,2.12-1.36,2.2-3,.21-6.1.51-12.2.8-18.3.25-4.7.55-9.36.85-14.07.13-2,.25-4.11.42-6.19a11.83,11.83,0,0,0-2-7.63c-2.29-3.6-4-7.5-6-11.27-2.41-4.58-4.75-9.19-7.24-13.73a8,8,0,0,0-2.92-2.75c-4.32-2.33-8.73-4.53-13.09-6.74a24.58,24.58,0,0,0-2.92-1.14,7,7,0,0,1-.89-.68,3.43,3.43,0,0,1,.85-.59c4.58-.85,9.15-1.65,13.77-2.54,6.19-1.23,12.37-2.5,18.56-3.77,1.44-.3,2.84-.64,4.28-.89a4.6,4.6,0,0,1,3.39,1.14c5.85,4.11,11.86,8.09,17.88,11.95,2.67,1.74,3.6,4.58,5.17,7a124.9,124.9,0,0,1,7.41,12.2c1.53,3,2.2,6.44,3.22,9.7.59,2,1.1,4,1.69,6.06.08.21.42.59.55.55a1.41,1.41,0,0,0,.72-.59q6.1-10.23,12.16-20.55c.93-1.57.47-3.05-.42-4.49-1.69-2.67-3.39-5.38-5.08-8a3.67,3.67,0,0,1-.3-.72c.47-.08,1-.34,1.4-.17,3.94,1.4,7.58,3,10,6.82,3.35,5.13,7.24,9.87,10.85,14.83a5.41,5.41,0,0,1,1,2.75c.21,5.3.3,10.63.47,15.93.08,1.78.25,3.56.42,5.34a3.66,3.66,0,0,0,.3.89c.25-.17.68-.25.8-.51,3.47-5.55,6.91-11.1,10.38-16.69a8.44,8.44,0,0,1,.8-1,6.06,6.06,0,0,1,.8,1c2.33,5.3,4.66,10.63,7,15.93,1.27,2.88,2.92,5.63,3.77,8.6.55,1.86,0,4-.25,6.06-.42,3.47-1.19,6.86-1.57,10.34-.64,5.47-1.95,10.51-5.68,14.83a143.28,143.28,0,0,0-8.69,11.65,3.76,3.76,0,0,0-.38,3c3.09,7.58,6.4,15.13,9.62,22.71,1.44,3.39,2.88,6.82,4.19,10.3a13.67,13.67,0,0,1,.85,4.11c.38,4.66.55,9.36.89,14.07.38,5.47.85,10.93,1.27,16.4.42,5.76,1.19,11.52,1.19,17.29C3428.35,1901.4,3428.05,1916.73,3427.93,1932Z" transform="translate(-1294.11 -1223.21)"/></svg>